<?xml version="1.0" encoding="iso-8859-1"?>
<!-- Generator: Adobe Illustrator 19.0.0, SVG Export Plug-In . SVG Version: 6.00 Build 0)  -->
<svg xmlns="http://www.w3.org/2000/svg" xmlns:xlink="http://www.w3.org/1999/xlink" version="1.1" id="Layer_1" x="0px" y="0px" viewBox="0 0 512 512" style="enable-background:new 0 0 512 512;" xml:space="preserve" width="512px" height="512px">
<g>
	<g>
		<g>
			<path d="M498.409,175.706L336.283,13.582c-8.752-8.751-20.423-13.571-32.865-13.571c-12.441,0-24.113,4.818-32.865,13.569     L13.571,270.563C4.82,279.315,0,290.985,0,303.427c0,12.442,4.82,24.114,13.571,32.864l19.992,19.992     c0.002,0.001,0.003,0.003,0.005,0.005c0.002,0.002,0.004,0.004,0.006,0.006l134.36,134.36H149.33     c-5.89,0-10.666,4.775-10.666,10.666c0,5.89,4.776,10.666,10.666,10.666h59.189c0.014,0,0.027,0.001,0.041,0.001     s0.027-0.001,0.041-0.001l154.053,0.002c5.89,0,10.666-4.776,10.666-10.666c0-5.891-4.776-10.666-10.666-10.666l-113.464-0.002     L498.41,241.434C516.53,223.312,516.53,193.826,498.409,175.706z M483.325,226.35L226.341,483.334     c-4.713,4.712-11.013,7.31-17.742,7.32h-0.081c-6.727-0.011-13.025-2.608-17.736-7.32L56.195,348.746L302.99,101.949     c4.165-4.165,4.165-10.919,0-15.084c-4.166-4.165-10.918-4.165-15.085,0.001L41.11,333.663l-12.456-12.456     c-4.721-4.721-7.321-11.035-7.321-17.779c0-6.744,2.6-13.059,7.322-17.781L285.637,28.665c4.722-4.721,11.037-7.321,17.781-7.321     c6.744,0,13.059,2.6,17.781,7.322l57.703,57.702l-246.798,246.8c-4.165,4.164-4.165,10.918,0,15.085     c2.083,2.082,4.813,3.123,7.542,3.123c2.729,0,5.459-1.042,7.542-3.124l246.798-246.799l89.339,89.336     C493.128,200.593,493.127,216.546,483.325,226.35z" fill="#389fc5"/>
			<path d="M262.801,308.064c-4.165-4.165-10.917-4.164-15.085,0l-83.934,83.933c-4.165,4.165-4.165,10.918,0,15.085     c2.083,2.083,4.813,3.124,7.542,3.124c2.729,0,5.459-1.042,7.542-3.124l83.934-83.933     C266.966,318.982,266.966,312.229,262.801,308.064z" fill="#389fc5"/>
			<path d="M228.375,387.741l-34.425,34.425c-4.165,4.165-4.165,10.919,0,15.085c2.083,2.082,4.813,3.124,7.542,3.124     c2.731,0,5.459-1.042,7.542-3.124l34.425-34.425c4.165-4.165,4.165-10.919,0-15.085     C239.294,383.575,232.543,383.575,228.375,387.741z" fill="#389fc5"/>
			<path d="M260.054,356.065l-4.525,4.524c-4.166,4.165-4.166,10.918-0.001,15.085c2.082,2.083,4.813,3.125,7.542,3.125     c2.729,0,5.459-1.042,7.541-3.125l4.525-4.524c4.166-4.165,4.166-10.918,0.001-15.084     C270.974,351.901,264.219,351.9,260.054,356.065z" fill="#389fc5"/>
			<path d="M407.073,163.793c-2-2-4.713-3.124-7.542-3.124c-2.829,0-5.541,1.124-7.542,3.124l-45.255,45.254     c-2,2.001-3.124,4.713-3.124,7.542s1.124,5.542,3.124,7.542l30.17,30.167c2.083,2.083,4.813,3.124,7.542,3.124     c2.731,0,5.459-1.042,7.542-3.124l45.253-45.252c4.165-4.165,4.165-10.919,0-15.084L407.073,163.793z M384.445,231.673     l-15.085-15.084l30.17-30.169l15.084,15.085L384.445,231.673z" fill="#389fc5"/>
			<path d="M320.339,80.186c2.731,0,5.461-1.042,7.543-3.126l4.525-4.527c4.164-4.166,4.163-10.92-0.003-15.084     c-4.165-4.164-10.92-4.163-15.084,0.003l-4.525,4.527c-4.164,4.166-4.163,10.92,0.003,15.084     C314.881,79.146,317.609,80.186,320.339,80.186z" fill="#389fc5"/>
			<path d="M107.215,358.057l-4.525,4.525c-4.165,4.164-4.165,10.918,0,15.085c2.083,2.082,4.813,3.123,7.542,3.123     s5.459-1.041,7.542-3.123l4.525-4.525c4.165-4.166,4.165-10.92,0-15.085C118.133,353.891,111.381,353.891,107.215,358.057z" fill="#389fc5"/>
		</g>
	</g>
</g>
<g>
</g>
<g>
</g>
<g>
</g>
<g>
</g>
<g>
</g>
<g>
</g>
<g>
</g>
<g>
</g>
<g>
</g>
<g>
</g>
<g>
</g>
<g>
</g>
<g>
</g>
<g>
</g>
<g>
</g>
</svg>
